<?xml version="1.0" encoding="UTF-8"?>
<!DOCTYPE svg PUBLIC "-//W3C//DTD SVG 1.1//EN" "http://www.w3.org/Graphics/SVG/1.1/DTD/svg11.dtd">
<!-- Creator: CorelDRAW 2020 (64 Bit) -->
<svg xmlns="http://www.w3.org/2000/svg" xml:space="preserve" width="105.408mm" height="29.6334mm" version="1.1" style="shape-rendering:geometricPrecision; text-rendering:geometricPrecision; image-rendering:optimizeQuality; fill-rule:evenodd; clip-rule:evenodd"
viewBox="0 0 9779.55 2749.34"
 xmlns:xlink="http://www.w3.org/1999/xlink"
 xmlns:xodm="http://www.corel.com/coreldraw/odm/2003">
 <defs>
  <style type="text/css">
   <![CDATA[
    .fil0 {fill:#FEFEFE;fill-rule:nonzero}
    .fil6 {fill:#848688;fill-rule:nonzero}
    .fil5 {fill:#006038;fill-rule:nonzero}
    .fil4 {fill:url(#id0)}
    .fil2 {fill:url(#id1)}
    .fil3 {fill:url(#id2)}
    .fil1 {fill:url(#id3)}
   ]]>
  </style>
  <linearGradient id="id0" gradientUnits="userSpaceOnUse" x1="1800.11" y1="1816.63" x2="1800.11" y2="2738.29">
   <stop offset="0" style="stop-opacity:1; stop-color:#FFF212"/>
   <stop offset="0.85098" style="stop-opacity:1; stop-color:#00894C"/>
   <stop offset="1" style="stop-opacity:1; stop-color:#00894C"/>
  </linearGradient>
  <linearGradient id="id1" gradientUnits="userSpaceOnUse" x1="1800.11" y1="418.88" x2="1800.11" y2="2557.24">
   <stop offset="0" style="stop-opacity:1; stop-color:#FAEE35"/>
   <stop offset="1" style="stop-opacity:1; stop-color:#F89E34"/>
  </linearGradient>
  <linearGradient id="id2" gradientUnits="userSpaceOnUse" x1="1357.58" y1="1219.41" x2="1382.08" y2="2220.89">
   <stop offset="0" style="stop-opacity:1; stop-color:#34ADE3"/>
   <stop offset="1" style="stop-opacity:1; stop-color:#2F4C76"/>
  </linearGradient>
  <linearGradient id="id3" gradientUnits="userSpaceOnUse" x1="1627.36" y1="-97.61" x2="1938.66" y2="1667.9">
   <stop offset="0" style="stop-opacity:1; stop-color:#006B3E"/>
   <stop offset="0.568627" style="stop-opacity:1; stop-color:#7FAE28"/>
   <stop offset="0.929412" style="stop-opacity:1; stop-color:#FFF212"/>
   <stop offset="1" style="stop-opacity:1; stop-color:#FFF212"/>
  </linearGradient>
 </defs>
 <g id="Camada_x0020_1">
  <metadata id="CorelCorpID_0Corel-Layer"/>
  <g id="_1758110676128">
   <polygon class="fil0" points="3600.2,2737.92 0.01,2737.92 0.01,189.72 3600.2,189.72 "/>
   <polygon class="fil1" points="3600.2,1374.92 3600.2,189.32 0.01,189.32 0.01,1574.88 1432.7,418.88 "/>
   <path class="fil2" d="M0.01 1574.88l0 982.37c0,0 114.64,-100.16 328.4,-242.17l0 0c101.93,-633.45 651.04,-1117.33 1313.22,-1117.33l0 0c300.01,0 576.78,99.35 799.31,266.89l0 0c355.89,-65.58 743.79,-101.45 1159.26,-89.71l-2167.5 -956.04 -1432.69 1156z"/>
   <g>
    <image x="35.94" y="849.66" width="2770.16" height="1677.65" xlink:href="logo_Images\logo_ImgID1.png"/>
   </g>
   <path class="fil3" d="M328.41 2315.07c395.95,-263.06 1132.45,-669.77 2112.54,-850.44l0 0c-222.54,-167.54 -499.31,-266.89 -799.31,-266.89l0 0c-662.19,0 -1211.3,483.88 -1313.22,1117.33z"/>
   <path class="fil0" d="M2440.95 1464.65c-980.08,180.65 -1716.59,587.35 -2112.54,850.42 -213.79,142.01 -328.4,242.17 -328.4,242.17l0 181.06c0,0 105.35,-87.91 311.36,-209.36 417.75,-246.3 1250.04,-630.74 2461.47,-701.05 258.65,-15.01 534.52,-15.72 827.37,2.3l0 -455.25c-415.49,-11.76 -803.39,24.1 -1159.26,89.72z"/>
   <path class="fil4" d="M3600.2 2738.27l0 -908.09c-150,-9.22 -295.6,-13.55 -436.68,-13.55 -134.32,0 -264.53,3.91 -390.69,11.23l0 0c-1211.43,70.31 -2043.7,454.75 -2461.45,701.05l0 0c-206.01,121.46 -311.37,209.35 -311.37,209.35l0 0 327.93 0 2627.35 0 644.9 0z"/>
   <path class="fil5" d="M4148.06 1651.64l0 424.26c81.9,0 163.86,-1.76 236.01,-1.76 210.67,0 253.56,-120.98 253.56,-210.39 0,-87.65 -56.57,-212.1 -265.25,-212.1l-224.32 0zm0 -143.71l204.83 0c183.33,0 224.25,-98.2 224.25,-180.59 0,-85.87 -37.04,-180.54 -220.38,-180.54 -54.64,0 -146.3,0 -208.71,-1.76l0 362.89zm212.57 -503.12c286.75,0 425.25,119.21 425.25,317.28 0,110.46 -74.14,206.84 -183.35,245.45 132.61,35.05 247.73,155.97 247.73,306.76 0,194.57 -140.48,341.83 -464.24,341.83 -157.99,0 -284.78,-3.55 -431.08,-5.26l-11.71 -12.28 0 -1176.25 11.71 -12.27c142.41,-1.77 276.97,-5.26 405.68,-5.26z"/>
   <path class="fil5" d="M5210.7 1578.04c76.05,-1.76 161.87,-3.53 216.51,-3.53 191.17,0 237.97,-108.66 237.97,-210.34 0,-106.95 -46.8,-212.12 -237.97,-212.12 -56.6,0 -150.18,0 -216.51,-1.76l0 427.75zm419.36 105.16c64.36,21.07 111.16,80.62 138.48,149.03l85.82 205.08c19.52,47.34 42.89,94.65 87.75,126.23 -27.26,36.79 -87.75,57.83 -140.4,57.83 -78.03,0 -105.34,-38.58 -136.53,-113.95l-97.57 -236.66c-33.11,-80.62 -76.04,-143.71 -197.01,-143.71l-159.9 0 0 482.07c-31.18,5.23 -70.27,7.02 -103.36,7.02 -31.25,0 -72.18,-1.79 -101.46,-7.02l0 -1186.78 11.71 -12.27c146.29,-1.76 286.75,-5.26 419.34,-5.26 271.14,0 442.8,126.23 442.8,359.37 0,161.3 -107.31,278.73 -249.68,319.03z"/>
   <path class="fil5" d="M6402.17 1767.37c31.24,0 83.92,-1.76 99.49,-1.76l195.05 0c13.65,0 66.29,1.76 97.58,1.76l-89.79 -254.2c-35.06,-101.67 -76.05,-224.38 -103.36,-317.26l-9.72 0c-19.48,78.83 -54.61,189.31 -76.1,254.18l-113.14 317.28zm-52.66 150.74l-103.36 292.76c-25.37,5.26 -58.51,7.02 -89.72,7.02 -37.09,0 -74.13,-5.3 -101.45,-12.28l-5.85 -8.79 440.85 -1184.98c31.19,-5.26 85.82,-7.04 119,-7.04 33.15,0 87.73,1.78 117.01,7.04l436.95 1184.98c-29.3,17.54 -76.11,24.57 -120.96,24.57 -64.36,0 -97.54,-21.08 -122.87,-98.17l-72.17 -205.11c-33.17,0 -101.46,1.76 -117.07,1.76l-267.22 0c-15.63,0 -79.97,-1.76 -113.14,-1.76z"/>
   <path class="fil5" d="M7348.01 1956.7c113.14,66.56 257.49,119.21 392.04,119.21 158,0 247.7,-68.39 249.68,-164.82 0,-82.4 -64.36,-145.48 -177.51,-189.29l-230.16 -89.41c-163.86,-63.13 -267.21,-154.27 -267.21,-303.28 0,-191.09 179.41,-340.06 440.83,-340.06 161.88,0 312.04,45.57 413.52,91.13 -1.99,52.59 -33.18,110.42 -76.11,145.54 -101.42,-45.62 -234.04,-82.43 -333.54,-82.43 -144.33,0 -234.06,71.88 -234.06,164.81 0,77.14 66.35,120.93 161.89,157.76l226.31 87.64c167.71,63.09 292.55,170.04 292.55,326.07 0,201.6 -156.03,352.34 -477.86,352.34 -161.94,0 -337.48,-49.12 -468.16,-131.49 5.85,-54.3 44.86,-112.19 87.81,-143.71z"/>
   <path class="fil5" d="M8448.6 1011.83c29.3,-5.25 72.17,-7.02 103.36,-7.02 31.25,0 72.18,1.77 103.42,7.02l0 1197.29c-31.24,5.23 -72.17,7.02 -103.42,7.02 -31.18,0 -74.06,-1.79 -103.36,-7.02l0 -1197.29z"/>
   <path class="fil5" d="M9763.45 2047.82c0,19.3 -1.99,50.86 -5.85,73.64 -11.7,59.62 -60.48,89.42 -134.6,89.42l-509.08 0c-70.19,0 -120.96,-40.32 -120.96,-115.72l0 -1079.84 13.67 -10.51 78.01 0c85.83,0 117.1,36.84 117.1,119.23l0 930.81c60.39,-5.26 120.88,-7.02 173.55,-7.02l388.17 0z"/>
   <path class="fil5" d="M4061.59 519.33c29.19,-0.89 60.99,-1.8 74.22,-1.8 78.6,0 94.49,-64.48 94.49,-111.26 0,-47.72 -15.89,-111.34 -94.49,-111.34 -22.06,0 -47.69,0 -74.22,-0.89l0 225.29zm81.26 90.09l-81.26 0 0 200.51c-18.53,3.55 -42.39,4.41 -59.16,4.41 -15.89,0 -40.61,-0.85 -59.19,-4.41l0 -598.9 6.21 -5.3c70.64,-1.78 129.84,-3.53 193.41,-3.53 121.91,0 209.35,66.26 209.35,204.07 0,133.37 -87.43,203.15 -209.35,203.15z"/>
   <path class="fil5" d="M4522.72 579.4c12.38,0 30.9,-0.89 39.76,-0.89l75.95 0c7.93,0 24.72,0.89 37.12,0.89l-26.53 -90.14c-14.98,-50.35 -34.47,-118.36 -47.7,-171.35l-5.3 0c-8.83,45.05 -27.38,108.68 -38.85,149.27l-34.46 112.22zm-29.18 93.59l-41.51 137.84c-15.02,3.49 -32.64,4.4 -51.24,4.4 -18.51,0 -42.38,-2.65 -56.52,-7.95l-4.39 -6.19 196.97 -594.5c19.42,-2.66 48.6,-4.4 68.93,-4.4 18.51,0 49.44,1.73 68.01,5.3l193.42 594.51c-16.77,9.69 -45.03,15.04 -68.01,15.04 -37.97,0 -56.55,-13.29 -70.67,-63.65l-24.72 -80.4c-13.23,0 -34.47,0.91 -43.31,0.91l-123.66 0c-8.83,0 -29.17,0 -43.31,-0.91z"/>
   <path class="fil5" d="M4990.02 370.05c0,-23.88 0.83,-40.65 0.83,-65.37l-0.83 0c-12.38,0 -40.66,0.84 -53.05,0.84l-98.03 0c-3.55,-17.61 -4.46,-35.29 -4.46,-49.43 0,-13.24 0.91,-31.8 4.46,-49.51l422.25 0c3.5,12.4 6.15,30.93 6.15,45.97 0,38.85 -20.27,52.97 -63.58,52.97l-41.48 0c-12.4,0 -40.67,-0.84 -53.05,-0.84l-0.85 0c0,24.73 0.85,41.49 0.85,65.37l0 439.87c-20.36,3.57 -42.42,4.41 -60.04,4.41 -16.84,0 -38.92,-0.84 -59.17,-4.41l0 -439.87z"/>
   <path class="fil5" d="M5460.81 486.6c30.92,-1.75 64.48,-2.63 81.26,-2.63 76.86,0 94.48,-46.81 94.48,-95.39 0,-49.43 -17.62,-95.38 -94.48,-95.38 -21.25,0 -53.88,0 -81.26,-0.92l0 194.32zm187.25 63.65c31.8,11.49 52.97,41.48 65.34,77.68l32.73 89.25c8.77,24.73 22.06,48.6 41.51,64.48 -15.04,21.17 -47.72,35.36 -78.63,35.36 -43.31,0 -58.34,-23.87 -75.1,-69.82l-37.12 -105.15c-13.23,-35.29 -30.9,-63.56 -82.14,-63.56l-53.84 0 0 231.42c-19.48,3.57 -42.46,4.41 -59.24,4.41 -14.96,0 -39.74,-0.84 -58.28,-4.41l0 -598.88 6.21 -5.3c70.66,-1.81 137.78,-3.55 201.4,-3.55 122.76,0 207.55,60.92 207.55,186.38 0,83.9 -52.99,141.34 -110.4,161.68z"/>
   <path class="fil5" d="M5883.01 206.58c17.7,-3.49 43.31,-4.38 59.18,-4.38 16.78,0 39.76,0.89 59.18,4.38l0 603.35c-19.43,3.55 -42.4,4.4 -59.18,4.4 -15.87,0 -41.48,-0.84 -59.18,-4.4l0 -603.35z"/>
   <path class="fil5" d="M6272.54 579.4c12.4,0 30.92,-0.89 39.76,-0.89l75.97 0c7.93,0 24.72,0.89 37.09,0.89l-26.53 -90.14c-14.97,-50.35 -34.44,-118.36 -47.67,-171.35l-5.3 0c-8.84,45.05 -27.38,108.68 -38.86,149.27l-34.46 112.22zm-29.16 93.59l-41.51 137.84c-15.02,3.49 -32.71,4.4 -51.24,4.4 -18.51,0 -42.38,-2.65 -56.52,-7.95l-4.39 -6.19 196.97 -594.5c19.42,-2.66 48.58,-4.4 68.92,-4.4 18.53,0 49.43,1.73 67.95,5.3l193.49 594.51c-16.77,9.69 -45.03,15.04 -68.01,15.04 -37.97,0 -56.55,-13.29 -70.69,-63.65l-24.73 -80.4c-13.23,0 -34.44,0.91 -43.3,0.91l-123.64 0c-8.83,0 -29.19,0 -43.31,-0.91z"/>
   <path class="fil5" d="M7018.98 579.4c12.38,0 30.91,-0.89 39.74,-0.89l75.97 0c7.93,0 24.73,0.89 37.1,0.89l-26.53 -90.14c-14.96,-50.35 -34.44,-118.36 -47.67,-171.35l-5.3 0c-8.84,45.05 -27.37,108.68 -38.86,149.27l-34.44 112.22zm-29.18 93.59l-41.5 137.84c-15.02,3.49 -32.66,4.4 -51.25,4.4 -18.51,0 -42.37,-2.65 -56.52,-7.95l-4.39 -6.19 196.97 -594.5c19.42,-2.66 48.58,-4.4 68.93,-4.4 18.51,0 49.42,1.73 67.99,5.3l193.43 594.51c-16.77,9.69 -45.03,15.04 -68.01,15.04 -37.97,0 -56.54,-13.29 -70.69,-63.65l-24.72 -80.4c-13.21,0 -34.44,0.91 -43.31,0.91l-123.64 0c-8.83,0 -29.19,0 -43.31,-0.91z"/>
   <path class="fil5" d="M7479.12 207.49c25.63,-4.39 59.24,-6.2 79.51,-6.2 21.23,0 50.33,1.81 75.11,6.2l68.03 244.71c6.2,24.73 28.26,115.71 33.56,151.03l6.21 0c5.27,-35.32 27.36,-126.3 33.54,-151.03l67.13 -244.71c26.53,-4.39 54.78,-6.2 75.06,-6.2 21.23,0 53.88,1.81 80.41,6.2l46.77 600.69c-16.77,4.39 -40.58,6.13 -60.01,6.13 -18.59,0 -35.37,-0.84 -52.13,-3.49l-16.79 -283.56c-3.54,-54.79 -7.02,-136.04 -7.02,-191.66l-6.21 0 -103.37 384.24c-17.64,2.63 -44.14,4.38 -60.93,4.38 -15.95,0 -42.4,-1.74 -60.07,-4.38l-103.33 -384.24 -6.21 0c-0.91,55.62 -3.54,136.87 -7.08,191.66l-16.78 283.56c-16.78,2.65 -34.4,3.49 -52.99,3.49 -18.54,0 -42.42,-1.74 -59.18,-6.13l46.78 -600.69z"/>
   <path class="fil5" d="M8296.27 579.4c12.39,0 30.93,-0.89 39.76,-0.89l75.96 0c7.91,0 24.71,0.89 37.1,0.89l-26.53 -90.14c-14.97,-50.35 -34.46,-118.36 -47.7,-171.35l-5.3 0c-8.82,45.05 -27.35,108.68 -38.84,149.27l-34.47 112.22zm-29.18 93.59l-41.5 137.84c-15.02,3.49 -32.64,4.4 -51.23,4.4 -18.53,0 -42.39,-2.65 -56.52,-7.95l-4.4 -6.19 196.96 -594.5c19.43,-2.66 48.61,-4.4 68.94,-4.4 18.5,0 49.43,1.73 68.01,5.3l193.42 594.51c-16.77,9.69 -45.04,15.04 -68.02,15.04 -37.97,0 -56.54,-13.29 -70.67,-63.65l-24.72 -80.4c-13.23,0 -34.46,0.91 -43.31,0.91l-123.66 0c-8.83,0 -29.16,0 -43.31,-0.91z"/>
   <path class="fil5" d="M8941.07 295.84c-33.55,0 -60.92,0 -96.29,-0.9l0 426.64c35.38,-0.85 62.75,-0.85 96.29,-0.85 115.7,0 132.49,-115.76 132.49,-212.89 0,-97.19 -16.78,-212 -132.49,-212zm158.12 474.35c-38.86,31.8 -110.44,44.13 -158.12,44.13 -74.21,0 -131.59,-1.74 -208.46,-3.51l-6.18 -5.27 0 -594.51 6.18 -5.32c75.96,-2.63 134.25,-3.53 208.46,-3.53 47.68,0 119.27,12.38 158.12,44.13 81.24,65.37 96.28,159.03 96.28,261.51 0,103.32 -14.15,196.96 -96.28,262.35z"/>
   <path class="fil5" d="M9418.95 579.4c12.4,0 30.92,-0.89 39.76,-0.89l75.96 0c7.94,0 24.73,0.89 37.1,0.89l-26.53 -90.14c-14.97,-50.35 -34.44,-118.36 -47.67,-171.35l-5.32 0c-8.83,45.05 -27.36,108.68 -38.85,149.27l-34.46 112.22zm-29.17 93.59l-41.5 137.84c-15.02,3.49 -32.71,4.4 -51.24,4.4 -18.52,0 -42.4,-2.65 -56.52,-7.95l-4.41 -6.19 196.98 -594.5c19.4,-2.66 48.59,-4.4 68.93,-4.4 18.51,0 49.44,1.73 67.94,5.3l193.5 594.51c-16.79,9.69 -45.06,15.04 -68.01,15.04 -37.98,0 -56.55,-13.29 -70.69,-63.65l-24.73 -80.4c-13.23,0 -34.44,0.91 -43.31,0.91l-123.64 0c-8.84,0 -29.18,0 -43.31,-0.91z"/>
   <path class="fil5" d="M4710.58 0.01c17.46,9.17 41.3,36.82 47.5,63.07l-146.29 86.97c-14.78,-5.37 -28.27,-24.92 -32.66,-39.58l131.45 -110.46z"/>
   <path class="fil6" d="M4089.21 2576.32l67.4 -0.45c30.36,0 45.52,14.33 45.52,42.94l0 112.94c-36.93,11.71 -75.71,17.58 -116.36,17.58 -20.61,0 -38.84,-3.43 -54.75,-10.3 -15.87,-6.87 -29.19,-16.75 -39.92,-29.61 -10.71,-12.88 -18.82,-28.69 -24.24,-47.46 -5.46,-18.73 -8.17,-40 -8.17,-63.77 0,-26.02 3.79,-48.72 11.39,-68.04 7.58,-19.33 17.73,-35.41 30.47,-48.31 12.74,-12.88 27.4,-22.52 44.02,-28.98 16.59,-6.43 33.9,-9.64 51.94,-9.64 37.22,0 72.15,10.28 104.77,30.91 -0.28,4.56 -1.37,9.22 -3.22,13.94 -1.86,4.71 -4.17,9.3 -6.87,13.72 -2.74,4.44 -5.86,8.45 -9.46,12.02 -3.58,3.59 -7.22,6.67 -10.95,9.25 -23.77,-15.44 -47.81,-23.21 -72.12,-23.21 -46.68,0 -70.01,32.66 -70.01,97.92 0,64.99 23.91,97.47 71.7,97.47 6.61,0 12.97,-0.3 19.12,-0.85 6.16,-0.59 12.25,-1.43 18.25,-2.58l0 -28.76c0,-6.61 0.06,-12.35 0.22,-17.2 0.14,-4.84 0.36,-9.01 0.63,-12.44l-21.46 0c-12.3,0 -20.83,-2.37 -25.55,-7.08 -4.72,-4.75 -7.07,-12.09 -7.07,-22.13 0,-8.58 1.57,-17.9 4.71,-27.89z"/>
   <path class="fil6" d="M4467.48 2663.06c7.75,22.32 23.33,33.47 46.81,33.47 11.75,0 21.26,-2.91 28.57,-8.79 7.28,-5.87 13.02,-13.31 17.16,-22.32 4.15,-9.01 6.94,-19.12 8.39,-30.27 1.41,-11.19 2.12,-22.2 2.12,-33.07 0,-10.02 -0.34,-21.17 -1.06,-33.51 -0.72,-12.3 -2.81,-23.81 -6.23,-34.54 -3.45,-10.73 -8.89,-19.74 -16.33,-27.04 -7.44,-7.3 -18.32,-10.96 -32.63,-10.96 -13.73,0 -24.24,3.52 -31.54,10.5 -7.32,7.02 -12.74,15.67 -16.33,25.97 -3.57,10.31 -5.81,21.26 -6.67,32.87 -0.84,11.56 -1.27,21.82 -1.27,30.71 0,13.17 0.64,24.87 1.93,35.17 1.29,10.32 3.66,20.91 7.08,31.8zm-34.77 59.24c-30.64,-25.48 -45.93,-67.42 -45.93,-125.8 0,-25.2 2.91,-47.3 8.79,-66.35 5.87,-19.03 14.31,-35 25.31,-47.87 11.04,-12.89 24.43,-22.59 40.18,-29.2 15.74,-6.59 33.48,-9.86 53.23,-9.86 19.76,0 37.58,3.28 53.46,9.86 15.87,6.61 29.33,16.4 40.36,29.4 11.03,13.04 19.46,29.06 25.34,48.09 5.85,19.05 8.8,41.01 8.8,65.93 0,24.9 -2.95,46.85 -8.8,65.9 -5.87,19.05 -14.31,35 -25.34,47.87 -11.03,12.9 -24.48,22.62 -40.36,29.21 -15.88,6.58 -33.7,9.85 -53.46,9.85 -32.62,0 -59.81,-9 -81.58,-27.04z"/>
   <path class="fil6" d="M4936.78 2685.38l56.24 -235.72c6.88,-1.73 15.74,-2.6 26.63,-2.6 14.88,0 26.63,1.59 35.2,4.74l2.6 3.43 -80.32 287.66c-16.3,1.73 -32.7,2.61 -49.15,2.61 -16.45,0 -28.33,-2.09 -35.64,-6.25 -7.3,-4.15 -12.81,-12.38 -16.52,-24.68l-71.28 -258.9c15.46,-6.59 28.2,-9.9 38.22,-9.9 12.01,0 20.88,2.74 26.62,8.17 5.73,5.41 10.16,14.02 13.31,25.76l33.06 122.37c5.15,19.2 10.6,45.22 16.32,78.14 0.56,3.42 2.14,5.17 4.72,5.17z"/>
   <path class="fil6" d="M5308.6 2656.16l-0.42 30.93 0 0.42c13.12,-0.56 23.67,-0.87 31.65,-0.87l99.29 0c0,10.61 -0.42,18.77 -1.29,24.5 -3.41,22.03 -18.04,33.05 -43.78,33.05l-114.21 0c-12.32,0 -21.99,-3.57 -28.98,-10.73 -7.02,-7.16 -10.52,-16.89 -10.52,-29.21l0 -251.6 3 -3.02 185.06 0c1.73,8.31 2.58,17.34 2.58,27.06 0,9.72 -2,19.88 -6.01,30.47l-116.77 0 0.42 30.91 0 30.05c7.4,-0.27 17.08,-0.41 29.07,-0.41l65.41 0c2.55,8.01 3.85,17.15 3.85,27.47 0,10.3 -1.3,19.74 -3.85,28.33l-94.48 0 0 32.63z"/>
   <path class="fil6" d="M5702.32 2498.15l0 84.6c12.89,0 23.91,-0.22 33.08,-0.63 9.15,-0.45 16.53,-2.17 22.1,-5.19 5.59,-3.03 9.81,-7.28 12.68,-12.74 2.84,-5.45 4.3,-13.37 4.3,-23.74 0,-27.91 -13.47,-41.84 -40.36,-41.84l-17.83 0c-5.3,0 -9.96,-0.14 -13.97,-0.45zm142.13 42.08c0,9.46 -1.43,18.4 -4.3,26.87 -2.86,8.42 -6.65,16.02 -11.37,22.73 -4.71,6.74 -10.32,12.62 -16.74,17.62 -6.46,5 -13.12,8.79 -19.98,11.37 14.88,5.46 25.91,18.63 33.06,39.51l12.91 36.5c4.86,14.32 12.01,24.88 21.44,31.77 -4.28,5.72 -10.73,10.53 -19.32,14.38 -8.57,3.89 -18.04,5.81 -28.33,5.81 -10.3,0 -18.31,-2.95 -24.05,-8.8 -5.72,-5.87 -11.02,-16.11 -15.88,-30.71l-15.46 -45.07c-3.15,-8.59 -7.39,-15.18 -12.65,-19.74 -5.33,-4.58 -13.26,-6.88 -23.83,-6.88l-17.63 0 0 107.34c-9.17,1.72 -20.61,2.59 -34.34,2.59 -13.75,0 -25.06,-0.87 -33.9,-2.59l0 -291.11 2.99 -3.02c24.9,-0.55 45.85,-0.96 62.89,-1.28 17.02,-0.28 30.42,-0.42 40.15,-0.42 15.74,0 30.06,1.95 42.94,5.79 12.87,3.87 23.84,9.67 32.85,17.41 9,7.74 16,17.45 21.02,29.18 5,11.75 7.52,25.33 7.52,40.79z"/>
   <path class="fil6" d="M6276.39 2446.64l3 3 0 291.97c-11.47,2.58 -24.98,3.87 -40.59,3.87 -15.59,0 -29.4,-0.85 -41.41,-2.58l-67.43 -153.72c-8.02,-17.43 -16.17,-37.63 -24.46,-60.53l-1.31 0.42c3.45,41.81 5.16,84.6 5.16,128.38l0 85.45c-8.87,1.73 -19.6,2.58 -32.2,2.58 -12.6,0 -23.19,-0.85 -31.77,-2.58l0 -291.95c10.88,-2.6 23.97,-3.9 39.28,-3.9 15.3,0 28.98,0.87 41.01,2.58l66.57 153.28c12,28.35 20.88,50.12 26.62,65.27l1.71 -0.85c-3.43,-39.77 -5.16,-81.99 -5.16,-126.65l0 -52.37c0,-14.9 3,-25.57 9.03,-32 6.01,-6.45 15.74,-9.67 29.2,-9.67l22.76 0z"/>
   <path class="fil6" d="M6555.05 2663.06c7.72,22.32 23.32,33.47 46.78,33.47 11.75,0 21.26,-2.91 28.57,-8.79 7.3,-5.87 13.02,-13.31 17.16,-22.32 4.17,-9.01 6.94,-19.12 8.4,-30.27 1.4,-11.19 2.13,-22.2 2.13,-33.07 0,-10.02 -0.35,-21.17 -1.07,-33.51 -0.71,-12.3 -2.8,-23.81 -6.23,-34.54 -3.45,-10.73 -8.87,-19.74 -16.31,-27.04 -7.46,-7.3 -18.33,-10.96 -32.66,-10.96 -13.73,0 -24.24,3.52 -31.54,10.5 -7.32,7.02 -12.74,15.67 -16.32,25.97 -3.57,10.31 -5.8,21.26 -6.67,32.87 -0.85,11.56 -1.27,21.82 -1.27,30.71 0,13.17 0.63,24.87 1.94,35.17 1.27,10.32 3.64,20.91 7.09,31.8zm-34.8 59.24c-30.63,-25.48 -45.93,-67.42 -45.93,-125.8 0,-25.2 2.92,-47.3 8.79,-66.35 5.87,-19.03 14.32,-35 25.34,-47.87 11.03,-12.89 24.43,-22.59 40.15,-29.2 15.75,-6.59 33.48,-9.86 53.23,-9.86 19.76,0 37.59,3.28 53.47,9.86 15.89,6.61 29.34,16.4 40.37,29.4 11.01,13.04 19.45,29.06 25.32,48.09 5.87,19.05 8.8,41.01 8.8,65.93 0,24.9 -2.93,46.85 -8.8,65.9 -5.87,19.05 -14.31,35 -25.32,47.87 -11.03,12.9 -24.47,22.62 -40.37,29.21 -15.87,6.58 -33.71,9.85 -53.47,9.85 -32.62,0 -59.81,-9 -81.58,-27.04z"/>
   <path class="fil6" d="M7234.71 2508.04l0.45 33.47 0 27.06 92.32 0c2.26,8.59 3.43,17.97 3.43,28.13 0,10.18 -1.17,19.54 -3.43,28.13l-92.32 0 0 118.06c-9.11,1.73 -20.48,2.61 -34.15,2.61 -13.65,0 -25.03,-0.88 -34.11,-2.61l0 -290.66 2.99 -2.58 183.79 0c1.71,7.16 2.56,16.09 2.56,26.82 0,10.73 -2.94,18.67 -8.83,23.84 -5.87,5.14 -15.14,7.72 -27.8,7.72l-84.89 0z"/>
   <path class="fil6" d="M7611.7 2656.16l-0.43 30.93 0 0.42c13.12,-0.56 23.68,-0.87 31.67,-0.87l99.27 0c0,10.61 -0.42,18.77 -1.27,24.5 -3.43,22.03 -18.05,33.05 -43.79,33.05l-114.23 0c-12.3,0 -21.99,-3.57 -28.98,-10.73 -7.02,-7.16 -10.52,-16.89 -10.52,-29.21l0 -251.6 3.02 -3.02 185.06 0c1.71,8.31 2.56,17.34 2.56,27.06 0,9.72 -2,19.88 -5.99,30.47l-116.8 0 0.43 30.91 0 30.05c7.41,-0.27 17.09,-0.41 29.06,-0.41l65.41 0c2.58,8.01 3.85,17.15 3.85,27.47 0,10.3 -1.27,19.74 -3.85,28.33l-94.47 0 0 32.63z"/>
   <path class="fil6" d="M8047.94 2691.82c37.75,0 56.66,-31.77 56.66,-95.33 0,-63.8 -18.91,-95.75 -56.66,-95.75l-24.28 0c-7,0 -13.08,-0.14 -18.26,-0.41l0 191.89c5.18,-0.27 11.25,-0.41 18.26,-0.41l24.28 0zm78.99 32.19c-9.16,7.44 -21.18,12.88 -36.08,16.31 -14.88,3.45 -31.32,5.18 -49.36,5.18 -8.87,0 -21.69,-0.18 -38.43,-0.45 -16.75,-0.3 -37.71,-0.71 -62.91,-1.27l-2.99 -3.02 0 -288.98 2.99 -3c16.61,-0.58 33.85,-0.99 51.74,-1.28 17.9,-0.31 36.7,-0.45 56.46,-0.45 24.35,0 44.64,3.89 60.98,11.61 16.3,7.72 29.32,18.31 39.04,31.77 9.76,13.44 16.61,29.26 20.63,47.44 4.01,18.2 5.99,37.72 5.99,58.62 0,28.63 -3.29,53.38 -9.86,74.28 -6.59,20.9 -19.31,38.67 -38.22,53.25z"/>
   <path class="fil6" d="M8438.64 2656.16l-0.42 30.93 0 0.42c13.13,-0.56 23.69,-0.87 31.66,-0.87l99.3 0c0,10.61 -0.44,18.77 -1.29,24.5 -3.43,22.03 -18.05,33.05 -43.79,33.05l-114.21 0c-12.32,0 -22,-3.57 -28.98,-10.73 -7.04,-7.16 -10.51,-16.89 -10.51,-29.21l0 -251.6 3 -3.02 185.06 0c1.71,8.31 2.58,17.34 2.58,27.06 0,9.72 -2,19.88 -6.01,30.47l-116.79 0 0.42 30.91 0 30.05c7.41,-0.27 17.1,-0.41 29.09,-0.41l65.38 0c2.59,8.01 3.87,17.15 3.87,27.47 0,10.3 -1.28,19.74 -3.87,28.33l-94.47 0 0 32.63z"/>
   <path class="fil6" d="M8832.38 2498.15l0 84.6c12.88,0 23.91,-0.22 33.05,-0.63 9.17,-0.45 16.53,-2.17 22.13,-5.19 5.59,-3.03 9.8,-7.28 12.67,-12.74 2.84,-5.45 4.3,-13.37 4.3,-23.74 0,-27.91 -13.49,-41.84 -40.37,-41.84l-17.84 0c-5.3,0 -9.94,-0.14 -13.94,-0.45zm142.11 42.08c0,9.46 -1.41,18.4 -4.29,26.87 -2.86,8.42 -6.64,16.02 -11.37,22.73 -4.72,6.74 -10.32,12.62 -16.77,17.62 -6.43,5 -13.09,8.79 -19.96,11.37 14.87,5.46 25.91,18.63 33.05,39.51l12.9 36.5c4.86,14.32 12.02,24.88 21.47,31.77 -4.29,5.72 -10.73,10.53 -19.33,14.38 -8.57,3.89 -18.04,5.81 -28.33,5.81 -10.29,0 -18.31,-2.95 -24.04,-8.8 -5.73,-5.87 -11.03,-16.11 -15.89,-30.71l-15.46 -45.07c-3.15,-8.59 -7.38,-15.18 -12.67,-19.74 -5.3,-4.58 -13.23,-6.88 -23.81,-6.88l-17.62 0 0 107.34c-9.17,1.72 -20.62,2.59 -34.34,2.59 -13.75,0 -25.06,-0.87 -33.93,-2.59l0 -291.11 3.02 -3.02c24.9,-0.55 45.85,-0.96 62.89,-1.28 17.02,-0.28 30.4,-0.42 40.16,-0.42 15.71,0 30.05,1.95 42.91,5.79 12.9,3.87 23.84,9.67 32.87,17.41 9.01,7.74 16.01,17.45 21.03,29.18 4.99,11.75 7.5,25.33 7.5,40.79z"/>
   <path class="fil6" d="M9245.41 2627.4l17.18 -0.44 31.35 0c1.45,0 3.94,0.08 7.5,0.22 3.59,0.14 6.25,0.21 7.98,0.21l-7.32 -26.62c-6.87,-24.05 -14.74,-53.52 -23.61,-88.45l-2.57 0c-2.29,12.3 -9.17,39.63 -20.6,82.02l-9.91 33.05zm1.3 54.11c-7.72,0 -13.43,-0.15 -17.18,-0.42l-18.45 62.24c-6.87,1.7 -16.46,2.57 -28.76,2.57 -13.75,0 -24.9,-1.56 -33.49,-4.71l-2.16 -3.43 94.48 -288.1c11.17,-1.71 24.19,-2.58 39.08,-2.58 16.87,0 30.32,1.01 40.36,3.02l92.74 288.52c-10.04,5.46 -21.32,8.16 -33.92,8.16 -14.9,0 -25.32,-2.57 -31.35,-7.75 -6,-5.15 -11.17,-15.02 -15.46,-29.61l-8.17 -28.33c-3.71,0.27 -9.28,0.42 -16.72,0.42l-60.98 0z"/>
   <path class="fil6" d="M9704.98 2684.92l74.56 0c0,11.47 -0.71,21.26 -2.14,29.4 -1.45,8.19 -6.01,15.22 -13.75,21.05 -7.72,5.87 -17.87,8.81 -30.48,8.81l-97.03 0c-12.32,0 -22.03,-3.56 -29.21,-10.72 -7.15,-7.18 -10.73,-16.92 -10.73,-29.23l0 -254.59 2.99 -3.02 25.18 0c26.72,0 40.1,14.62 40.1,43.78l0 196.21c12.64,-1.11 26.13,-1.71 40.51,-1.71z"/>
  </g>
 </g>
</svg>
